<mxfile host="Electron" agent="Mozilla/5.0 (Windows NT 10.0; Win64; x64) AppleWebKit/537.36 (KHTML, like Gecko) draw.io/28.2.8 Chrome/140.0.7339.240 Electron/38.4.0 Safari/537.36" version="28.2.8">
  <diagram name="Page-1" id="ZtbLHoUJ_gUlz9USWYCr">
    <mxGraphModel dx="1383" dy="580" grid="1" gridSize="10" guides="1" tooltips="1" connect="1" arrows="1" fold="1" page="0" pageScale="1" pageWidth="850" pageHeight="1100" math="0" shadow="0">
      <root>
        <mxCell id="0" />
        <mxCell id="1" parent="0" />
        <mxCell id="vvb8C7ecbh0mGmgveVv0-15" value="" style="shape=table;startSize=0;container=1;collapsible=0;childLayout=tableLayout;" vertex="1" parent="1">
          <mxGeometry x="-140" y="290" width="940" height="280" as="geometry" />
        </mxCell>
        <mxCell id="vvb8C7ecbh0mGmgveVv0-16" value="" style="shape=tableRow;horizontal=0;startSize=0;swimlaneHead=0;swimlaneBody=0;strokeColor=inherit;top=0;left=0;bottom=0;right=0;collapsible=0;dropTarget=0;fillColor=none;points=[[0,0.5],[1,0.5]];portConstraint=eastwest;" vertex="1" parent="vvb8C7ecbh0mGmgveVv0-15">
          <mxGeometry width="940" height="71" as="geometry" />
        </mxCell>
        <mxCell id="vvb8C7ecbh0mGmgveVv0-17" value="mối quan hệ" style="shape=partialRectangle;html=1;whiteSpace=wrap;connectable=0;strokeColor=inherit;overflow=hidden;fillColor=none;top=0;left=0;bottom=0;right=0;pointerEvents=1;" vertex="1" parent="vvb8C7ecbh0mGmgveVv0-16">
          <mxGeometry width="380" height="71" as="geometry">
            <mxRectangle width="380" height="71" as="alternateBounds" />
          </mxGeometry>
        </mxCell>
        <mxCell id="vvb8C7ecbh0mGmgveVv0-18" value="loại" style="shape=partialRectangle;html=1;whiteSpace=wrap;connectable=0;strokeColor=inherit;overflow=hidden;fillColor=none;top=0;left=0;bottom=0;right=0;pointerEvents=1;" vertex="1" parent="vvb8C7ecbh0mGmgveVv0-16">
          <mxGeometry x="380" width="160" height="71" as="geometry">
            <mxRectangle width="160" height="71" as="alternateBounds" />
          </mxGeometry>
        </mxCell>
        <mxCell id="vvb8C7ecbh0mGmgveVv0-19" value="giải thích" style="shape=partialRectangle;html=1;whiteSpace=wrap;connectable=0;strokeColor=inherit;overflow=hidden;fillColor=none;top=0;left=0;bottom=0;right=0;pointerEvents=1;" vertex="1" parent="vvb8C7ecbh0mGmgveVv0-16">
          <mxGeometry x="540" width="180" height="71" as="geometry">
            <mxRectangle width="180" height="71" as="alternateBounds" />
          </mxGeometry>
        </mxCell>
        <mxCell id="vvb8C7ecbh0mGmgveVv0-20" value="ký hiệu" style="shape=partialRectangle;html=1;whiteSpace=wrap;connectable=0;strokeColor=inherit;overflow=hidden;fillColor=none;top=0;left=0;bottom=0;right=0;pointerEvents=1;" vertex="1" parent="vvb8C7ecbh0mGmgveVv0-16">
          <mxGeometry x="720" width="220" height="71" as="geometry">
            <mxRectangle width="220" height="71" as="alternateBounds" />
          </mxGeometry>
        </mxCell>
        <mxCell id="vvb8C7ecbh0mGmgveVv0-21" value="" style="shape=tableRow;horizontal=0;startSize=0;swimlaneHead=0;swimlaneBody=0;strokeColor=inherit;top=0;left=0;bottom=0;right=0;collapsible=0;dropTarget=0;fillColor=none;points=[[0,0.5],[1,0.5]];portConstraint=eastwest;" vertex="1" parent="vvb8C7ecbh0mGmgveVv0-15">
          <mxGeometry y="71" width="940" height="69" as="geometry" />
        </mxCell>
        <mxCell id="vvb8C7ecbh0mGmgveVv0-22" value="" style="shape=partialRectangle;html=1;whiteSpace=wrap;connectable=0;strokeColor=inherit;overflow=hidden;fillColor=none;top=0;left=0;bottom=0;right=0;pointerEvents=1;" vertex="1" parent="vvb8C7ecbh0mGmgveVv0-21">
          <mxGeometry width="380" height="69" as="geometry">
            <mxRectangle width="380" height="69" as="alternateBounds" />
          </mxGeometry>
        </mxCell>
        <mxCell id="vvb8C7ecbh0mGmgveVv0-23" value="" style="shape=partialRectangle;html=1;whiteSpace=wrap;connectable=0;strokeColor=inherit;overflow=hidden;fillColor=none;top=0;left=0;bottom=0;right=0;pointerEvents=1;" vertex="1" parent="vvb8C7ecbh0mGmgveVv0-21">
          <mxGeometry x="380" width="160" height="69" as="geometry">
            <mxRectangle width="160" height="69" as="alternateBounds" />
          </mxGeometry>
        </mxCell>
        <mxCell id="vvb8C7ecbh0mGmgveVv0-24" value="độc lập và có liên kết" style="shape=partialRectangle;html=1;whiteSpace=wrap;connectable=0;strokeColor=inherit;overflow=hidden;fillColor=none;top=0;left=0;bottom=0;right=0;pointerEvents=1;" vertex="1" parent="vvb8C7ecbh0mGmgveVv0-21">
          <mxGeometry x="540" width="180" height="69" as="geometry">
            <mxRectangle width="180" height="69" as="alternateBounds" />
          </mxGeometry>
        </mxCell>
        <mxCell id="vvb8C7ecbh0mGmgveVv0-25" value="" style="shape=partialRectangle;html=1;whiteSpace=wrap;connectable=0;strokeColor=inherit;overflow=hidden;fillColor=none;top=0;left=0;bottom=0;right=0;pointerEvents=1;" vertex="1" parent="vvb8C7ecbh0mGmgveVv0-21">
          <mxGeometry x="720" width="220" height="69" as="geometry">
            <mxRectangle width="220" height="69" as="alternateBounds" />
          </mxGeometry>
        </mxCell>
        <mxCell id="vvb8C7ecbh0mGmgveVv0-26" value="" style="shape=tableRow;horizontal=0;startSize=0;swimlaneHead=0;swimlaneBody=0;strokeColor=inherit;top=0;left=0;bottom=0;right=0;collapsible=0;dropTarget=0;fillColor=none;points=[[0,0.5],[1,0.5]];portConstraint=eastwest;" vertex="1" parent="vvb8C7ecbh0mGmgveVv0-15">
          <mxGeometry y="140" width="940" height="71" as="geometry" />
        </mxCell>
        <mxCell id="vvb8C7ecbh0mGmgveVv0-27" value="" style="shape=partialRectangle;html=1;whiteSpace=wrap;connectable=0;strokeColor=inherit;overflow=hidden;fillColor=none;top=0;left=0;bottom=0;right=0;pointerEvents=1;" vertex="1" parent="vvb8C7ecbh0mGmgveVv0-26">
          <mxGeometry width="380" height="71" as="geometry">
            <mxRectangle width="380" height="71" as="alternateBounds" />
          </mxGeometry>
        </mxCell>
        <mxCell id="vvb8C7ecbh0mGmgveVv0-28" value="" style="shape=partialRectangle;html=1;whiteSpace=wrap;connectable=0;strokeColor=inherit;overflow=hidden;fillColor=none;top=0;left=0;bottom=0;right=0;pointerEvents=1;" vertex="1" parent="vvb8C7ecbh0mGmgveVv0-26">
          <mxGeometry x="380" width="160" height="71" as="geometry">
            <mxRectangle width="160" height="71" as="alternateBounds" />
          </mxGeometry>
        </mxCell>
        <mxCell id="vvb8C7ecbh0mGmgveVv0-29" value="" style="shape=partialRectangle;html=1;whiteSpace=wrap;connectable=0;strokeColor=inherit;overflow=hidden;fillColor=none;top=0;left=0;bottom=0;right=0;pointerEvents=1;" vertex="1" parent="vvb8C7ecbh0mGmgveVv0-26">
          <mxGeometry x="540" width="180" height="71" as="geometry">
            <mxRectangle width="180" height="71" as="alternateBounds" />
          </mxGeometry>
        </mxCell>
        <mxCell id="vvb8C7ecbh0mGmgveVv0-30" value="" style="shape=partialRectangle;html=1;whiteSpace=wrap;connectable=0;strokeColor=inherit;overflow=hidden;fillColor=none;top=0;left=0;bottom=0;right=0;pointerEvents=1;" vertex="1" parent="vvb8C7ecbh0mGmgveVv0-26">
          <mxGeometry x="720" width="220" height="71" as="geometry">
            <mxRectangle width="220" height="71" as="alternateBounds" />
          </mxGeometry>
        </mxCell>
        <mxCell id="vvb8C7ecbh0mGmgveVv0-31" value="" style="shape=tableRow;horizontal=0;startSize=0;swimlaneHead=0;swimlaneBody=0;strokeColor=inherit;top=0;left=0;bottom=0;right=0;collapsible=0;dropTarget=0;fillColor=none;points=[[0,0.5],[1,0.5]];portConstraint=eastwest;" vertex="1" parent="vvb8C7ecbh0mGmgveVv0-15">
          <mxGeometry y="211" width="940" height="69" as="geometry" />
        </mxCell>
        <mxCell id="vvb8C7ecbh0mGmgveVv0-32" value="" style="shape=partialRectangle;html=1;whiteSpace=wrap;connectable=0;strokeColor=inherit;overflow=hidden;fillColor=none;top=0;left=0;bottom=0;right=0;pointerEvents=1;" vertex="1" parent="vvb8C7ecbh0mGmgveVv0-31">
          <mxGeometry width="380" height="69" as="geometry">
            <mxRectangle width="380" height="69" as="alternateBounds" />
          </mxGeometry>
        </mxCell>
        <mxCell id="vvb8C7ecbh0mGmgveVv0-33" value="" style="shape=partialRectangle;html=1;whiteSpace=wrap;connectable=0;strokeColor=inherit;overflow=hidden;fillColor=none;top=0;left=0;bottom=0;right=0;pointerEvents=1;" vertex="1" parent="vvb8C7ecbh0mGmgveVv0-31">
          <mxGeometry x="380" width="160" height="69" as="geometry">
            <mxRectangle width="160" height="69" as="alternateBounds" />
          </mxGeometry>
        </mxCell>
        <mxCell id="vvb8C7ecbh0mGmgveVv0-34" value="" style="shape=partialRectangle;html=1;whiteSpace=wrap;connectable=0;strokeColor=inherit;overflow=hidden;fillColor=none;top=0;left=0;bottom=0;right=0;pointerEvents=1;" vertex="1" parent="vvb8C7ecbh0mGmgveVv0-31">
          <mxGeometry x="540" width="180" height="69" as="geometry">
            <mxRectangle width="180" height="69" as="alternateBounds" />
          </mxGeometry>
        </mxCell>
        <mxCell id="vvb8C7ecbh0mGmgveVv0-35" value="" style="shape=partialRectangle;html=1;whiteSpace=wrap;connectable=0;strokeColor=inherit;overflow=hidden;fillColor=none;top=0;left=0;bottom=0;right=0;pointerEvents=1;" vertex="1" parent="vvb8C7ecbh0mGmgveVv0-31">
          <mxGeometry x="720" width="220" height="69" as="geometry">
            <mxRectangle width="220" height="69" as="alternateBounds" />
          </mxGeometry>
        </mxCell>
        <mxCell id="vvb8C7ecbh0mGmgveVv0-36" value="&lt;span style=&quot;color: rgb(0, 0, 0); font-family: Arial, sans-serif; font-size: 16px; font-style: normal; font-variant-ligatures: normal; font-variant-caps: normal; font-weight: 400; letter-spacing: normal; orphans: 2; text-align: start; text-indent: 0px; text-transform: none; widows: 2; word-spacing: 0px; -webkit-text-stroke-width: 0px; white-space: pre-wrap; background-color: rgb(255, 255, 255); text-decoration-thickness: initial; text-decoration-style: initial; text-decoration-color: initial; display: inline !important; float: none;&quot;&gt;Một đơn hàng gồm nhiều sản phẩm&lt;/span&gt;" style="text;whiteSpace=wrap;html=1;" vertex="1" parent="1">
          <mxGeometry x="-30" y="440" width="290" height="40" as="geometry" />
        </mxCell>
        <mxCell id="vvb8C7ecbh0mGmgveVv0-37" value="&lt;span style=&quot;color: rgb(0, 0, 0); font-family: Arial, sans-serif; font-size: 16px; font-style: normal; font-variant-ligatures: normal; font-variant-caps: normal; font-weight: 400; letter-spacing: normal; orphans: 2; text-align: start; text-indent: 0px; text-transform: none; widows: 2; word-spacing: 0px; -webkit-text-stroke-width: 0px; white-space: pre-wrap; background-color: rgb(255, 255, 255); text-decoration-thickness: initial; text-decoration-style: initial; text-decoration-color: initial; display: inline !important; float: none;&quot;&gt;Một cơ thể gồm nhiều bộ phận không thể tách rời&lt;/span&gt;" style="text;whiteSpace=wrap;html=1;" vertex="1" parent="1">
          <mxGeometry x="-120" y="510" width="380" height="40" as="geometry" />
        </mxCell>
        <mxCell id="vvb8C7ecbh0mGmgveVv0-39" value="&#xa;&lt;span style=&quot;color: rgb(0, 0, 0); font-family: Arial, sans-serif; font-size: 16px; font-style: normal; font-variant-ligatures: normal; font-variant-caps: normal; font-weight: 400; letter-spacing: normal; orphans: 2; text-align: start; text-indent: 0px; text-transform: none; widows: 2; word-spacing: 0px; -webkit-text-stroke-width: 0px; white-space: pre-wrap; background-color: rgb(255, 255, 255); text-decoration-thickness: initial; text-decoration-style: initial; text-decoration-color: initial; display: inline !important; float: none;&quot;&gt;Aggregation&lt;/span&gt;&#xa;&#xa;" style="shape=partialRectangle;html=1;whiteSpace=wrap;connectable=0;strokeColor=inherit;overflow=hidden;fillColor=none;top=0;left=0;bottom=0;right=0;pointerEvents=1;" vertex="1" parent="1">
          <mxGeometry x="240" y="441" width="140" height="69" as="geometry">
            <mxRectangle width="140" height="69" as="alternateBounds" />
          </mxGeometry>
        </mxCell>
        <mxCell id="vvb8C7ecbh0mGmgveVv0-40" value="&#xa;&lt;span style=&quot;color: rgb(0, 0, 0); font-family: Arial, sans-serif; font-size: 16px; font-style: normal; font-variant-ligatures: normal; font-variant-caps: normal; font-weight: 400; letter-spacing: normal; orphans: 2; text-align: start; text-indent: 0px; text-transform: none; widows: 2; word-spacing: 0px; -webkit-text-stroke-width: 0px; white-space: pre-wrap; background-color: rgb(255, 255, 255); text-decoration-thickness: initial; text-decoration-style: initial; text-decoration-color: initial; display: inline !important; float: none;&quot;&gt;Association&lt;/span&gt;&#xa;&#xa;" style="shape=partialRectangle;html=1;whiteSpace=wrap;connectable=0;strokeColor=inherit;overflow=hidden;fillColor=none;top=0;left=0;bottom=0;right=0;pointerEvents=1;" vertex="1" parent="1">
          <mxGeometry x="250" y="360" width="140" height="69" as="geometry">
            <mxRectangle width="140" height="69" as="alternateBounds" />
          </mxGeometry>
        </mxCell>
        <mxCell id="vvb8C7ecbh0mGmgveVv0-41" value="&#xa;&lt;span style=&quot;color: rgb(0, 0, 0); font-family: Arial, sans-serif; font-size: 16px; font-style: normal; font-variant-ligatures: normal; font-variant-caps: normal; font-weight: 400; letter-spacing: normal; orphans: 2; text-align: start; text-indent: 0px; text-transform: none; widows: 2; word-spacing: 0px; -webkit-text-stroke-width: 0px; white-space: pre-wrap; background-color: rgb(255, 255, 255); text-decoration-thickness: initial; text-decoration-style: initial; text-decoration-color: initial; display: inline !important; float: none;&quot;&gt;Composition&lt;/span&gt;&#xa;&#xa;" style="shape=partialRectangle;html=1;whiteSpace=wrap;connectable=0;strokeColor=inherit;overflow=hidden;fillColor=none;top=0;left=0;bottom=0;right=0;pointerEvents=1;" vertex="1" parent="1">
          <mxGeometry x="240" y="501" width="140" height="69" as="geometry">
            <mxRectangle width="140" height="69" as="alternateBounds" />
          </mxGeometry>
        </mxCell>
        <mxCell id="vvb8C7ecbh0mGmgveVv0-43" value="&lt;span style=&quot;color: rgb(0, 0, 0); font-family: Arial, sans-serif; font-size: 16px; font-style: normal; font-variant-ligatures: normal; font-variant-caps: normal; font-weight: 400; letter-spacing: normal; orphans: 2; text-align: start; text-indent: 0px; text-transform: none; widows: 2; word-spacing: 0px; -webkit-text-stroke-width: 0px; white-space: pre-wrap; background-color: rgb(255, 255, 255); text-decoration-thickness: initial; text-decoration-style: initial; text-decoration-color: initial; display: inline !important; float: none;&quot;&gt;Một giáo viên giảng dạy nhiều lớp học.&lt;/span&gt;" style="text;whiteSpace=wrap;html=1;" vertex="1" parent="1">
          <mxGeometry x="-80" y="384.5" width="310" height="40" as="geometry" />
        </mxCell>
        <mxCell id="vvb8C7ecbh0mGmgveVv0-44" value="" style="endArrow=none;html=1;rounded=0;" edge="1" parent="1">
          <mxGeometry width="50" height="50" relative="1" as="geometry">
            <mxPoint x="670" y="419.5" as="sourcePoint" />
            <mxPoint x="720" y="369.5" as="targetPoint" />
          </mxGeometry>
        </mxCell>
        <mxCell id="vvb8C7ecbh0mGmgveVv0-45" value="" style="endArrow=diamondThin;endFill=0;endSize=24;html=1;rounded=0;" edge="1" parent="1">
          <mxGeometry width="160" relative="1" as="geometry">
            <mxPoint x="610" y="459.66" as="sourcePoint" />
            <mxPoint x="770" y="459.66" as="targetPoint" />
          </mxGeometry>
        </mxCell>
        <mxCell id="vvb8C7ecbh0mGmgveVv0-46" value="" style="endArrow=diamondThin;endFill=1;endSize=24;html=1;rounded=0;" edge="1" parent="1">
          <mxGeometry width="160" relative="1" as="geometry">
            <mxPoint x="610" y="529.66" as="sourcePoint" />
            <mxPoint x="770" y="529.66" as="targetPoint" />
          </mxGeometry>
        </mxCell>
      </root>
    </mxGraphModel>
  </diagram>
</mxfile>
